# xmcd
#
# Track frame offsets:
#	150
#	15776
#	32482
#	49650
#	69323
#	83615
#	105793
#	130969
#	146892
#	166811
#	186947
#	207955
#	227553
#	253544
#	269191
#	285958
#	309398
#
# Disc length: 4385 seconds
#
# Revision: 0
# Processed by: cddbd v1.5.2PL0 Copyright (c) Steve Scherf et al.
# Submitted via: EasyCDDAExtractor 10.2.0.1
#
DISCID=da111f11
DTITLE=Sy Smith - The Syberspace Social 
DYEAR=2007
DGENRE=R&B
TTITLE0=Welcome 2 Syberspace
TTITLE1=Fa Show
TTITLE2=Aquarius Rising
TTITLE3=Time
TTITLE4=Love and Such
TTITLE5=Dreamtrip
TTITLE6=Runnin (Jah Child)
TTITLE7=Honeychild
TTITLE8=Part of The Night
TTITLE9=Drop That
TTITLE10=Stand Alone
TTITLE11=No Place Like Love
TTITLE12=Turnstyles
TTITLE13=Bruise
TTITLE14=Lover's Crime (bonus  track)
TTITLE15=Bad on You (Bonus Track)
TTITLE16=Drop That (bonus track)(remix)
EXTD=
EXTT0=
EXTT1=
EXTT2=
EXTT3=
EXTT4=
EXTT5=
EXTT6=
EXTT7=
EXTT8=
EXTT9=
EXTT10=
EXTT11=
EXTT12=
EXTT13=
EXTT14=
EXTT15=
EXTT16=
PLAYORDER=
